<svg width="890" height="729" viewBox="0 0 890 729" fill="none" xmlns="http://www.w3.org/2000/svg">
<g style="mix-blend-mode:color-dodge" opacity="0.75">
<path d="M714.827 284.489C751.561 421.582 667.919 563.399 527.581 601.003C387.242 638.606 243.897 557.61 207.163 420.517C170.429 283.424 254.071 141.607 394.41 104.003C534.748 66.3996 678.093 147.395 714.827 284.489Z" stroke="#FFA300" stroke-width="16"/>
<path d="M360.661 532.078C378.436 598.416 337.976 667.186 269.866 685.436C201.755 703.686 132.331 664.36 114.556 598.022C96.7806 531.684 137.24 462.914 205.351 444.664C273.462 426.414 342.885 465.74 360.661 532.078Z" stroke="#FFA300" stroke-width="16"/>
<path d="M760.456 304.119C770.648 342.155 747.461 381.706 708.242 392.215C669.022 402.723 629.167 380.065 618.975 342.029C608.783 303.993 631.97 264.442 671.189 253.933C710.409 243.424 750.264 266.083 760.456 304.119Z" stroke="#FFA300" stroke-width="16"/>
<path d="M778.871 176.153C796.192 240.793 756.768 307.81 690.391 325.595C624.014 343.381 556.364 305.055 539.044 240.415C521.724 175.775 561.147 108.758 627.524 90.9725C693.901 73.1868 761.551 111.513 778.871 176.153Z" stroke="#FFA300" stroke-width="16"/>
<path d="M755.163 58.3762C762.169 84.5254 746.238 111.804 719.152 119.062C692.067 126.319 664.63 110.661 657.624 84.5116C650.617 58.3624 666.549 31.0838 693.634 23.8262C720.72 16.5687 748.156 32.2269 755.163 58.3762Z" stroke="#FFA300" stroke-width="16"/>
<path d="M416.335 425.985C426.527 464.021 403.34 503.572 364.121 514.081C324.901 524.59 285.046 501.931 274.854 463.895C264.662 425.859 287.849 386.308 327.068 375.799C366.288 365.291 406.143 387.949 416.335 425.985Z" stroke="#FFA300" stroke-width="16"/>
<path d="M324.247 350.148C340.127 409.41 303.986 470.875 243.098 487.19C182.21 503.505 120.178 468.346 104.299 409.083C88.4192 349.82 124.56 288.355 185.448 272.041C246.336 255.726 308.368 290.885 324.247 350.148Z" stroke="#FFA300" stroke-width="16"/>
</g>
</svg>
